<?xml version="1.0" standalone="no"?>
<!DOCTYPE svg PUBLIC "-//W3C//DTD SVG 20010904//EN"
 "http://www.w3.org/TR/2001/REC-SVG-20010904/DTD/svg10.dtd">
<svg version="1.0" xmlns="http://www.w3.org/2000/svg"
 width="500.000000pt" height="500.000000pt" viewBox="0 0 500.000000 500.000000"
 preserveAspectRatio="xMidYMid meet">
<metadata>
Created by potrace 1.11, written by Peter Selinger 2001-2013
</metadata>
<g transform="translate(0.000000,500.000000) scale(0.100000,-0.100000)"
fill="#000000" stroke="none">
<path d="M0 2500 l0 -2500 2500 0 2500 0 0 2500 0 2500 -2500 0 -2500 0 0
-2500z m1302 504 l3 -486 475 483 475 484 175 2 175 2 -409 -404 c-308 -305
-407 -407 -399 -417 6 -7 135 -182 289 -388 153 -206 342 -462 421 -567 l143
-193 -173 0 -172 0 -349 490 -349 490 -153 -146 -154 -146 0 -344 0 -344 -130
0 -130 0 0 985 0 985 130 0 130 0 2 -486z m1828 -384 l0 -870 480 0 480 0 0
-115 0 -115 -610 0 -610 0 0 985 0 985 130 0 130 0 0 -870z"/>
</g>
</svg>
