<?xml version="1.0" standalone="no"?>
<!DOCTYPE svg PUBLIC "-//W3C//DTD SVG 20010904//EN"
 "http://www.w3.org/TR/2001/REC-SVG-20010904/DTD/svg10.dtd">
<svg version="1.0" xmlns="http://www.w3.org/2000/svg"
 width="500.000000pt" height="500.000000pt" viewBox="0 0 500.000000 500.000000"
 preserveAspectRatio="xMidYMid meet">
<metadata>
Created by potrace 1.11, written by Peter Selinger 2001-2013
</metadata>
<g transform="translate(0.000000,500.000000) scale(0.100000,-0.100000)"
fill="#000000" stroke="none">
<path d="M395 4988 c-127 -24 -273 -134 -337 -254 -61 -113 -58 15 -57 -2239
0 -1914 1 -2065 17 -2126 44 -166 189 -310 357 -354 52 -13 301 -15 2125 -15
1824 0 2073 2 2125 15 168 44 313 188 357 354 16 61 17 212 17 2126 1 1804 -1
2068 -14 2124 -43 182 -206 337 -389 370 -77 14 -4127 13 -4201 -1z m907
-1984 l3 -487 475 486 475 486 177 0 177 1 -317 -313 c-174 -172 -359 -353
-411 -403 l-94 -92 419 -563 c230 -309 425 -571 432 -581 13 -17 5 -18 -160
-18 l-174 0 -348 489 -349 490 -153 -147 -154 -147 0 -342 0 -343 -130 0 -130
0 0 985 0 985 130 0 130 0 2 -486z m1828 -384 l0 -870 480 0 480 0 0 -115 0
-115 -610 0 -610 0 0 985 0 985 130 0 130 0 0 -870z"/>
</g>
</svg>
